<svg width="28" height="28" viewBox="0 0 28 28" fill="none" xmlns="http://www.w3.org/2000/svg">
<rect x="1" y="1" width="26" height="26" rx="13" stroke="#699DFF" stroke-width="2"/>
<path d="M18.5295 10.1346C19.1359 10.5916 19.877 11.0339 20.7031 11.1453C21.0869 11.198 21.4413 10.9256 21.4941 10.5418C21.5468 10.158 21.2744 9.80358 20.8906 9.75085C20.4248 9.68934 19.918 9.41983 19.3761 9.01264C18.2512 8.1631 16.725 8.1631 15.5971 9.01264C14.8941 9.54286 14.4049 9.78308 14.0006 9.78308C13.5963 9.78308 13.1071 9.54286 12.4041 9.01264C11.2792 8.1631 9.75294 8.1631 8.62512 9.01264C8.08317 9.41983 7.57638 9.68934 7.1106 9.75085C6.72685 9.80358 6.45441 10.1551 6.50714 10.5418C6.55987 10.9285 6.9114 11.198 7.29809 11.1453C8.12418 11.0339 8.86826 10.5916 9.47172 10.1346C10.0957 9.66297 10.9335 9.66297 11.5575 10.1346C12.2664 10.6707 13.0896 11.1863 14.0006 11.1863C14.9117 11.1863 15.7319 10.6678 16.4438 10.1346C17.0677 9.66297 17.9055 9.66297 18.5295 10.1346ZM18.5295 14.353C19.1359 14.81 19.877 15.2523 20.7031 15.3636C21.0869 15.4164 21.4413 15.1439 21.4941 14.7602C21.5468 14.3764 21.2744 14.022 20.8906 13.9692C20.4248 13.9077 19.918 13.6382 19.3761 13.231C18.2512 12.3815 16.725 12.3815 15.5971 13.231C14.8941 13.7612 14.4049 14.0014 14.0006 14.0014C13.5963 14.0014 13.1071 13.7612 12.4041 13.231C11.2792 12.3815 9.75294 12.3815 8.62512 13.231C8.08317 13.6382 7.57638 13.9077 7.1106 13.9692C6.72685 14.019 6.45441 14.3735 6.50714 14.7602C6.55987 15.1469 6.9114 15.4164 7.29809 15.3636C8.12418 15.2523 8.86826 14.81 9.47172 14.353C10.0957 13.8813 10.9335 13.8813 11.5575 14.353C12.2664 14.8891 13.0896 15.4046 14.0006 15.4046C14.9117 15.4046 15.7319 14.8861 16.4438 14.353C17.0677 13.8813 17.9055 13.8813 18.5295 14.353ZM16.4438 18.5714C17.0677 18.0997 17.9055 18.0997 18.5295 18.5714C19.1359 19.0283 19.877 19.4707 20.7031 19.582C21.0869 19.6347 21.4413 19.3623 21.4941 18.9785C21.5468 18.5948 21.2744 18.2403 20.8906 18.1876C20.4248 18.1261 19.918 17.8566 19.3761 17.4494C18.2512 16.5998 16.725 16.5998 15.5971 17.4494C14.8941 17.9796 14.4049 18.2198 14.0006 18.2198C13.5963 18.2198 13.1071 17.9796 12.4041 17.4494C11.2792 16.5998 9.75294 16.5998 8.62512 17.4494C8.08317 17.8566 7.57638 18.1261 7.1106 18.1876C6.72685 18.2403 6.45441 18.5919 6.50714 18.9785C6.55987 19.3652 6.9114 19.6347 7.29809 19.582C8.12418 19.4707 8.86826 19.0283 9.47172 18.5714C10.0957 18.0997 10.9335 18.0997 11.5575 18.5714C12.2664 19.1074 13.0896 19.623 14.0006 19.623C14.9117 19.623 15.7319 19.1045 16.4438 18.5714Z" fill="#699DFF"/>
</svg>
