<svg width="135" height="32" viewBox="0 0 135 32" fill="none" xmlns="http://www.w3.org/2000/svg">
<path d="M17.7383 6.66675C19.0509 6.66675 20.196 7.38046 20.8096 8.44019H20.8105L27.9053 20.7292C28.2076 21.2513 28.3818 21.857 28.3818 22.5037C28.3818 24.4629 26.7932 26.0514 24.834 26.0515C23.4838 26.0515 22.3094 25.2974 21.71 24.1873L17.7383 17.3083L13.7158 24.2771L13.7148 24.2761C13.1015 25.3369 11.956 26.0515 10.6426 26.0515C9.32948 26.0513 8.1836 25.3376 7.57031 24.2771V24.2781L0.475586 11.988H0.474609C0.172844 11.4663 3.06326e-05 10.8606 0 10.2146C0 8.25527 1.58852 6.66675 3.54785 6.66675C4.86051 6.66681 6.00562 7.38038 6.61914 8.44019H6.62012L10.6426 15.407L14.666 8.44019C15.2795 7.38022 16.4255 6.66676 17.7383 6.66675ZM28.4521 6.66675C30.4113 6.66683 31.9998 8.25546 32 10.2146C32 10.8564 31.8283 11.4579 31.5303 11.9773H31.5312L28.7979 16.6853C28.6437 16.9509 28.2606 16.9508 28.1064 16.6853L25.373 11.9773H25.374C25.076 11.458 24.9043 10.8563 24.9043 10.2146C24.9045 8.25551 26.4931 6.66692 28.4521 6.66675Z" fill="#4486FF"/>
<path d="M36.46 6.88H41.38L43.38 20.24H43.54L44.64 10.2C44.9 7.8 46.5 6.48 48.72 6.48C50.94 6.48 52.54 7.8 52.8 10.2L53.9 20.24H54.06L56.06 6.88H60.98L58.78 20.62C58.3 23.58 56.98 25.54 54.26 25.54C52.04 25.54 50.18 24.22 49.92 21.82L48.82 11.78H48.62L47.52 21.82C47.26 24.22 45.4 25.54 43.18 25.54C40.46 25.54 39.14 23.58 38.66 20.62L36.46 6.88ZM71.2778 12.12H75.6778V25.12H71.2778V23.84C70.3378 24.88 68.9978 25.52 67.1778 25.52C63.5978 25.52 61.0178 22.42 61.0178 18.62C61.0178 14.8 63.5978 11.72 67.1778 11.72C68.9978 11.72 70.3378 12.36 71.2778 13.4V12.12ZM68.3578 21.86C70.2978 21.86 71.0778 20.28 71.0778 18.64C71.0778 17 70.2978 15.42 68.3578 15.42C66.4578 15.42 65.6178 17 65.6178 18.64C65.6178 20.28 66.4578 21.86 68.3578 21.86ZM77.8775 25.12V21.56H84.6175C85.1975 21.56 85.5175 21.44 85.5175 20.98C85.5175 20.54 85.1975 20.42 84.6175 20.42H81.6775C79.2375 20.42 77.5975 19 77.5975 16.16C77.5975 13.4 79.2375 12.04 81.6775 12.04H89.1775V15.6H83.0175C82.4375 15.6 82.1175 15.72 82.1175 16.18C82.1175 16.62 82.4375 16.74 83.0175 16.74H85.5375C88.2575 16.74 90.0375 18.16 90.0375 21C90.0375 23.76 88.2575 25.12 85.5375 25.12H77.8775ZM106.027 18.64V25.12H101.427V18.64C101.427 17 101.187 15.42 99.287 15.42C97.347 15.42 96.567 17 96.567 18.64V25.12H91.967V6.88H96.567V13.18C97.487 12.26 98.787 11.72 100.467 11.72C104.047 11.72 106.027 14.82 106.027 18.64ZM122.109 19.84H112.789C113.109 21.14 113.989 21.94 115.229 21.94C116.289 21.94 117.089 21.48 117.329 20.68H122.149C121.389 23.46 119.129 25.54 115.249 25.54C110.549 25.54 108.049 22.46 108.049 18.64C108.049 14.8 110.429 11.72 115.129 11.72C119.829 11.72 122.209 14.8 122.209 18.64C122.209 19.06 122.169 19.44 122.109 19.84ZM112.889 16.96H117.369C117.029 15.9 116.309 15.2 115.129 15.2C113.949 15.2 113.229 15.9 112.889 16.96ZM134.293 15.8H131.133C129.753 15.8 128.833 16.72 128.833 18.1V25.12H124.233V18.12C124.233 14.52 126.633 12.12 130.233 12.12H134.293V15.8Z" fill="#4486FF"/>
</svg>
